<svg xmlns="http://www.w3.org/2000/svg" viewBox="0 0 500 500"><g id="freepik--background-simple--inject-57"><path d="M27.62,175.94S46.87,94.58,122.73,55s166.33-22.74,240-11.1,120.53,68,115.52,135.61-64.42,74-109.78,141.79-47.71,93-120.78,124.16-166.91-20.11-203-111S27.62,175.94,27.62,175.94Z" style="fill:#407BFF"></path><path d="M27.62,175.94S46.87,94.58,122.73,55s166.33-22.74,240-11.1,120.53,68,115.52,135.61-64.42,74-109.78,141.79-47.71,93-120.78,124.16-166.91-20.11-203-111S27.62,175.94,27.62,175.94Z" style="fill:#fff;opacity:0.7000000000000001"></path></g><g id="freepik--Graphics--inject-57"><path d="M413.41,147.45a1.51,1.51,0,1,1,1.51-1.51A1.51,1.51,0,0,1,413.41,147.45Z" style="fill:#888e92"></path><path d="M429.29,147.45a1.51,1.51,0,1,1,1.51-1.51A1.51,1.51,0,0,1,429.29,147.45Z" style="fill:#888e92"></path><path d="M444.4,147.45a1.51,1.51,0,1,1,1.51-1.51A1.51,1.51,0,0,1,444.4,147.45Z" style="fill:#888e92"></path><path d="M413.41,162.64a1.52,1.52,0,1,1,1.51-1.52A1.52,1.52,0,0,1,413.41,162.64Z" style="fill:#888e92"></path><path d="M429.29,162.64a1.52,1.52,0,1,1,1.51-1.52A1.52,1.52,0,0,1,429.29,162.64Z" style="fill:#888e92"></path><path d="M444.4,162.64a1.52,1.52,0,1,1,1.51-1.52A1.52,1.52,0,0,1,444.4,162.64Z" style="fill:#888e92"></path><circle cx="413.41" cy="176.3" r="1.51" style="fill:#888e92"></circle><circle cx="429.29" cy="176.3" r="1.51" style="fill:#888e92"></circle><circle cx="444.4" cy="176.3" r="1.51" style="fill:#888e92"></circle><path d="M429.29,193a1.52,1.52,0,1,1,1.51-1.51A1.52,1.52,0,0,1,429.29,193Z" style="fill:#888e92"></path><circle cx="413.41" cy="42.3" r="1.51" style="fill:#888e92"></circle><circle cx="429.29" cy="42.3" r="1.51" style="fill:#888e92"></circle><circle cx="444.4" cy="42.3" r="1.51" style="fill:#888e92"></circle><path d="M413.41,59a1.52,1.52,0,1,1,1.51-1.51A1.52,1.52,0,0,1,413.41,59Z" style="fill:#888e92"></path><path d="M429.29,59a1.52,1.52,0,1,1,1.51-1.51A1.52,1.52,0,0,1,429.29,59Z" style="fill:#888e92"></path><path d="M444.4,59a1.52,1.52,0,1,1,1.51-1.51A1.52,1.52,0,0,1,444.4,59Z" style="fill:#888e92"></path><path d="M413.41,74.18a1.52,1.52,0,1,1,1.51-1.51A1.52,1.52,0,0,1,413.41,74.18Z" style="fill:#888e92"></path><path d="M429.29,74.18a1.52,1.52,0,1,1,1.51-1.51A1.52,1.52,0,0,1,429.29,74.18Z" style="fill:#888e92"></path><path d="M444.4,74.18a1.52,1.52,0,1,1,1.51-1.51A1.52,1.52,0,0,1,444.4,74.18Z" style="fill:#888e92"></path><circle cx="429.29" cy="87.85" r="1.51" style="fill:#888e92"></circle><path d="M32.5,218.33A1.52,1.52,0,1,1,34,216.82,1.52,1.52,0,0,1,32.5,218.33Z" style="fill:#888e92"></path><path d="M48.38,218.33a1.52,1.52,0,1,1,1.51-1.51A1.52,1.52,0,0,1,48.38,218.33Z" style="fill:#888e92"></path><path d="M63.49,218.33A1.52,1.52,0,1,1,65,216.82,1.52,1.52,0,0,1,63.49,218.33Z" style="fill:#888e92"></path><path d="M32.5,233.51A1.51,1.51,0,1,1,34,232,1.52,1.52,0,0,1,32.5,233.51Z" style="fill:#888e92"></path><circle cx="48.38" cy="232" r="1.51" style="fill:#888e92"></circle><path d="M63.49,233.51A1.51,1.51,0,1,1,65,232,1.52,1.52,0,0,1,63.49,233.51Z" style="fill:#888e92"></path><path d="M32.5,248.7A1.52,1.52,0,1,1,34,247.18,1.52,1.52,0,0,1,32.5,248.7Z" style="fill:#888e92"></path><path d="M48.38,248.7a1.52,1.52,0,1,1,1.51-1.52A1.52,1.52,0,0,1,48.38,248.7Z" style="fill:#888e92"></path><path d="M63.49,248.7A1.52,1.52,0,1,1,65,247.18,1.52,1.52,0,0,1,63.49,248.7Z" style="fill:#888e92"></path><path d="M48.38,263.88a1.52,1.52,0,1,1,1.51-1.52A1.52,1.52,0,0,1,48.38,263.88Z" style="fill:#888e92"></path><path d="M136.5,64.33A1.52,1.52,0,1,1,138,62.82,1.52,1.52,0,0,1,136.5,64.33Z" style="fill:#888e92"></path><path d="M152.38,64.33a1.52,1.52,0,1,1,1.51-1.51A1.52,1.52,0,0,1,152.38,64.33Z" style="fill:#888e92"></path><path d="M167.49,64.33A1.52,1.52,0,1,1,169,62.82,1.52,1.52,0,0,1,167.49,64.33Z" style="fill:#888e92"></path><path d="M136.5,79.51A1.51,1.51,0,1,1,138,78,1.52,1.52,0,0,1,136.5,79.51Z" style="fill:#888e92"></path><circle cx="152.38" cy="78" r="1.51" style="fill:#888e92"></circle><path d="M167.49,79.51A1.51,1.51,0,1,1,169,78,1.52,1.52,0,0,1,167.49,79.51Z" style="fill:#888e92"></path><path d="M136.5,94.7A1.52,1.52,0,1,1,138,93.18,1.52,1.52,0,0,1,136.5,94.7Z" style="fill:#888e92"></path><path d="M152.38,94.7a1.52,1.52,0,1,1,1.51-1.52A1.52,1.52,0,0,1,152.38,94.7Z" style="fill:#888e92"></path><path d="M167.49,94.7A1.52,1.52,0,1,1,169,93.18,1.52,1.52,0,0,1,167.49,94.7Z" style="fill:#888e92"></path><circle cx="152.38" cy="108.36" r="1.51" style="fill:#888e92"></circle></g><g id="freepik--Plant--inject-57"><line x1="434.02" y1="379.97" x2="434.02" y2="258.03" style="fill:none;stroke:#407BFF;stroke-linecap:round;stroke-linejoin:round"></line><path d="M433.11,369s-6.42-9.17-14.67-13.75-22-4.59-22-4.59S403.77,377.22,433.11,369Z" style="fill:#407BFF"></path><path d="M434,369s6.42-9.17,14.67-13.75,22-4.59,22-4.59S463.36,377.22,434,369Z" style="fill:#407BFF"></path><path d="M433.11,336s-6.42-9.16-14.67-13.75-22-4.58-22-4.58S403.77,344.22,433.11,336Z" style="fill:#407BFF"></path><path d="M434,336s6.42-9.16,14.67-13.75,22-4.58,22-4.58S463.36,344.22,434,336Z" style="fill:#407BFF"></path><path d="M433.11,303s-6.42-9.17-14.67-13.76-22-4.58-22-4.58S403.77,311.21,433.11,303Z" style="fill:#407BFF"></path><path d="M434,303s6.42-9.17,14.67-13.76,22-4.58,22-4.58S463.36,311.21,434,303Z" style="fill:#407BFF"></path><path d="M433.11,270s-6.42-9.17-14.67-13.75-22-4.59-22-4.59S403.77,278.2,433.11,270Z" style="fill:#407BFF"></path><path d="M434,270s6.42-9.17,14.67-13.75,22-4.59,22-4.59S463.36,278.2,434,270Z" style="fill:#407BFF"></path><path d="M434,258s-7.33-9.87-7.7-19.31,5.83-21.7,5.83-21.7S454.62,235.56,434,258Z" style="fill:#407BFF"></path><polygon points="415.66 377.69 451.24 377.69 442.34 475 424.56 475 415.66 377.69" style="fill:#263238;stroke:#263238;stroke-linecap:round;stroke-linejoin:round"></polygon></g><g id="freepik--Device--inject-57"><path d="M392.15,166.17a1.44,1.44,0,0,0,1.45-1.44V126a1.45,1.45,0,0,0-1.45-1.44h-3.76v-74a18.61,18.61,0,0,0-18.61-18.61H188.05a18.61,18.61,0,0,0-18.61,18.61V432.55a18.62,18.62,0,0,0,18.61,18.62H369.78a18.62,18.62,0,0,0,18.61-18.62V199.49h3.76a1.45,1.45,0,0,0,1.45-1.44V180.8a1.45,1.45,0,0,0-1.45-1.44h-3.76V166.17Zm-10,251.89a13.46,13.46,0,0,1-13.64,13.28H189.37a13.46,13.46,0,0,1-13.64-13.28V54.51a13.46,13.46,0,0,1,13.64-13.29H260l2.94,5.45a18.32,18.32,0,0,0,32,0l2.94-5.45h70.59A13.46,13.46,0,0,1,382.1,54.51Z" style="fill:#263238;stroke:#263238;stroke-linecap:round;stroke-linejoin:round"></path><path d="M283.77,43.31a4.86,4.86,0,1,0-4.86,4.85A4.85,4.85,0,0,0,283.77,43.31Z" style="fill:#fff;stroke:#263238;stroke-linecap:round;stroke-linejoin:round"></path><path d="M368.46,41.22H297.87l-2.94,5.45a18.32,18.32,0,0,1-32,0L260,41.22H189.37a13.46,13.46,0,0,0-13.64,13.29V418.06a13.46,13.46,0,0,0,13.64,13.28H368.46a13.46,13.46,0,0,0,13.64-13.28V54.51A13.46,13.46,0,0,0,368.46,41.22Z" style="fill:#575757;stroke:#263238;stroke-linecap:round;stroke-linejoin:round"></path><path d="M216.17,376.64a1.1,1.1,0,1,1-1.1-1.11A1.1,1.1,0,0,1,216.17,376.64Z" style="fill:#fff"></path><path d="M220.05,376.64a1.1,1.1,0,1,1-1.1-1.11A1.1,1.1,0,0,1,220.05,376.64Z" style="fill:#fff"></path><path d="M223.75,376.64a1.11,1.11,0,1,1-1.11-1.11A1.11,1.11,0,0,1,223.75,376.64Z" style="fill:#fff"></path><path d="M216.17,380.35a1.1,1.1,0,1,1-1.1-1.11A1.1,1.1,0,0,1,216.17,380.35Z" style="fill:#fff"></path><path d="M220.05,380.35a1.1,1.1,0,1,1-1.1-1.11A1.1,1.1,0,0,1,220.05,380.35Z" style="fill:#fff"></path><path d="M223.75,380.35a1.11,1.11,0,1,1-1.11-1.11A1.11,1.11,0,0,1,223.75,380.35Z" style="fill:#fff"></path><path d="M216.17,384.06a1.1,1.1,0,1,1-1.1-1.11A1.1,1.1,0,0,1,216.17,384.06Z" style="fill:#fff"></path><path d="M220.05,384.06A1.1,1.1,0,1,1,219,383,1.1,1.1,0,0,1,220.05,384.06Z" style="fill:#fff"></path><path d="M223.75,384.06a1.11,1.11,0,1,1-1.11-1.11A1.11,1.11,0,0,1,223.75,384.06Z" style="fill:#fff"></path><path d="M220.05,387.76a1.1,1.1,0,1,1-1.1-1.1A1.11,1.11,0,0,1,220.05,387.76Z" style="fill:#fff"></path><path d="M339.27,376.68l-6.45,3.73h-4.37a.61.61,0,0,0-.61.61v3.66a.61.61,0,0,0,.61.61h4.38l6.44,3.72Z" style="fill:none;stroke:#fff;stroke-linecap:round;stroke-miterlimit:10;stroke-width:2px"></path><path d="M345.18,382.85a6.56,6.56,0,0,1-1.92,4.65l1,1.07a8,8,0,0,0-.26-11.68l-1.09,1A6.58,6.58,0,0,1,345.18,382.85Z" style="fill:#fff"></path><path d="M341.76,382.85a3.14,3.14,0,0,1-.85,2.15l1,1.08a4.63,4.63,0,0,0-.48-6.88l-1.11,1A3.17,3.17,0,0,1,341.76,382.85Z" style="fill:#fff"></path><polygon points="236.69 419.23 243.7 423.27 243.7 415.18 236.69 419.23" style="fill:none;stroke:#fff;stroke-linecap:round;stroke-linejoin:round"></polygon><path d="M281,419.23a3.74,3.74,0,1,0-3.73,3.73A3.74,3.74,0,0,0,281,419.23Z" style="fill:none;stroke:#fff;stroke-linecap:round;stroke-linejoin:round"></path><rect x="310.29" y="415.18" width="8.09" height="8.09" style="fill:none;stroke:#fff;stroke-linecap:round;stroke-linejoin:round"></rect><rect x="353.67" y="46.45" width="14.23" height="7.81" style="fill:none;stroke:#fff;stroke-linecap:round;stroke-linejoin:round;stroke-width:0.821067px"></rect><rect x="353.67" y="46.45" width="11.1" height="7.81" style="fill:#fff;stroke:#fff;stroke-linecap:round;stroke-linejoin:round;stroke-width:0.725073px"></rect><rect x="367.87" y="48.63" width="2.01" height="3.44" style="fill:#fff;stroke:#fff;stroke-linecap:round;stroke-linejoin:round;stroke-width:0.725073px"></rect><rect x="187.48" y="48.87" width="2.61" height="4.47" style="fill:#fff;stroke:#fff;stroke-linecap:round;stroke-linejoin:round;stroke-width:0.8830859999999999px"></rect><rect x="191.58" y="47.3" width="2.61" height="6.05" style="fill:#fff;stroke:#fff;stroke-linecap:round;stroke-linejoin:round;stroke-width:0.8830859999999999px"></rect><rect x="195.69" y="45.44" width="2.61" height="7.9" style="fill:#fff;stroke:#fff;stroke-linecap:round;stroke-linejoin:round;stroke-width:0.8830859999999999px"></rect><line x1="182.04" y1="60.42" x2="375.75" y2="60.42" style="fill:none;stroke:#fff;stroke-linecap:round;stroke-linejoin:round"></line><path d="M344.14,54.1a.94.94,0,1,0-.94.94A.94.94,0,0,0,344.14,54.1Z" style="fill:#fff"></path><path d="M338.21,49.37a6.86,6.86,0,0,1,9.74-.24l.52-.54a7.6,7.6,0,0,0-10.8.27Z" style="fill:#fff"></path><path d="M339.2,50.3l.55.52a4.73,4.73,0,0,1,6.74-.17l.52-.54a5.49,5.49,0,0,0-7.81.19Z" style="fill:#fff"></path><path d="M340.9,51.92l.54.51a2.41,2.41,0,0,1,1.76-.76,2.46,2.46,0,0,1,1.68.67l.52-.54a3.22,3.22,0,0,0-2.2-.88A3.13,3.13,0,0,0,340.9,51.92Z" style="fill:#fff"></path><circle cx="278.85" cy="128.26" r="30.85" transform="translate(107.18 382.7) rotate(-80.69)" style="fill:#949494"></circle><path d="M253.43,145.74a30.85,30.85,0,0,0,50.74.14c-3.77-1.4-18.84-7-18.84-8.13,0-1.25,2.09-4.69,3.58-7.81a25.07,25.07,0,0,0,.89-3.13l1.79-1.87c1.79-1.88.9-4.69.6-5.94s-2.31-.19-2.64,0a45.47,45.47,0,0,0-1.24-9c-1.05-3.31-7-4.8-8.35-4.9v0h-2.69v0c-1.39.1-7.3,1.59-8.35,4.9a45.47,45.47,0,0,0-1.24,9c-.33-.17-2.37-1.13-2.64,0s-1.19,4.06.6,5.94l1.79,1.87a25.07,25.07,0,0,0,.89,3.13c1.49,3.12,3.58,6.56,3.58,7.81C271.9,138.81,257.73,144.14,253.43,145.74Z" style="fill:#fff"></path><path d="M255.24,182.51a6.08,6.08,0,0,0,1.05,0c1.68-.12,2.52-1,2.52-3.22V165.7H260v13.49c0,3.14-1.41,4.29-3.58,4.39a7.61,7.61,0,0,1-1.17,0Z" style="fill:#fff"></path><path d="M263.69,179.62l-.89,4h-1.07l3.91-17.91h1.71l4,17.91h-1.17l-.9-4Zm.18-1h5.21L266.45,167Z" style="fill:#fff"></path><path d="M279.13,183.56H278l-3.78-15.82v15.84h-1.05V165.7h1.69l3.75,15.81,3.73-15.81H284v17.88h-1.12V167.69Z" style="fill:#fff"></path><path d="M292.08,174v1.07H287.2v7.46h5.88v1.07H286V165.7h7.06v1.07H287.2V174Z" style="fill:#fff"></path><path d="M302.53,170v.38H301.4v-.46c0-1.89-.71-3.32-2.65-3.32s-2.66,1.4-2.66,3.29c0,4.35,6.46,4.42,6.46,9.35,0,2.59-1.12,4.48-3.85,4.48s-3.86-1.89-3.86-4.48v-.91H296v1c0,1.92.74,3.3,2.71,3.3s2.71-1.38,2.71-3.3c0-4.29-6.47-4.37-6.47-9.35,0-2.68,1.18-4.42,3.81-4.45S302.53,167.44,302.53,170Z" style="fill:#fff"></path><path d="M266.09,203.23c0-1.7.77-2.91,2.53-2.91s2.52,1.21,2.52,2.91v5.87c0,1.68-.77,2.91-2.52,2.91s-2.53-1.23-2.53-2.91Zm.75,5.9c0,1.27.51,2.19,1.78,2.19s1.77-.92,1.77-2.19v-5.95c0-1.25-.51-2.17-1.77-2.17s-1.78.92-1.78,2.17Z" style="fill:#fff"></path><path d="M272.34,203.23c0-1.7.78-2.91,2.53-2.91s2.53,1.21,2.53,2.91v5.87c0,1.68-.77,2.91-2.53,2.91s-2.53-1.23-2.53-2.91Zm.76,5.9c0,1.27.51,2.19,1.77,2.19s1.77-.92,1.77-2.19v-5.95c0-1.25-.5-2.17-1.77-2.17s-1.77.92-1.77,2.17Z" style="fill:#fff"></path><path d="M279.39,210.46v1.45h-.74v-1.45Z" style="fill:#fff"></path><path d="M285.66,203.24c0,3.32-4.16,4.47-4.21,7.85v.13h4.11v.69H280.7v-.56c0-4,4.2-4.92,4.2-8.08,0-1.32-.44-2.26-1.75-2.26s-1.73,1-1.73,2.22V204h-.72v-.74c0-1.65.71-3,2.48-3S285.66,201.57,285.66,203.24Z" style="fill:#fff"></path><path d="M287.74,205.21a2,2,0,0,1,1.86-.88c1.59,0,2.23,1.21,2.23,2.8v2c0,1.66-.74,2.91-2.5,2.91s-2.47-1.25-2.47-2.91v-.62h.72v.65c0,1.24.49,2.17,1.74,2.17s1.75-.93,1.75-2.17V207.2c0-1.23-.49-2.17-1.75-2.17a1.6,1.6,0,0,0-1.64,1.31v.2H287l.3-6.14h4.31v.71H288Z" style="fill:#fff"></path><rect x="208.79" y="246.39" width="23.18" height="21.89" rx="2" style="fill:none;stroke:#fff;stroke-miterlimit:10;stroke-width:2px"></rect><line x1="209.43" y1="253.47" x2="231.97" y2="253.47" style="fill:none;stroke:#fff;stroke-miterlimit:10;stroke-width:2px"></line><rect x="223.6" y="260.56" width="5.15" height="5.15" style="fill:#fff"></rect><line x1="215.09" y1="246.16" x2="215.09" y2="243.46" style="fill:none;stroke:#fff;stroke-linecap:round;stroke-miterlimit:10;stroke-width:2px"></line><line x1="225.89" y1="246.16" x2="225.89" y2="243.46" style="fill:none;stroke:#fff;stroke-linecap:round;stroke-miterlimit:10;stroke-width:2px"></line><rect x="208.49" y="304.94" width="23.39" height="28.19" rx="1.55" style="fill:none;stroke:#fff;stroke-linecap:round;stroke-miterlimit:10;stroke-width:2px"></rect><line x1="212.69" y1="311.24" x2="227.69" y2="311.24" style="fill:none;stroke:#fff;stroke-linecap:round;stroke-miterlimit:10;stroke-width:2px"></line><line x1="212.69" y1="317.24" x2="227.69" y2="317.24" style="fill:none;stroke:#fff;stroke-linecap:round;stroke-miterlimit:10;stroke-width:2px"></line><line x1="212.69" y1="323.24" x2="221.69" y2="323.24" style="fill:none;stroke:#fff;stroke-linecap:round;stroke-miterlimit:10;stroke-width:2px"></line><path d="M284.27,318.82v1A5.16,5.16,0,0,1,279.1,325h0a5.17,5.17,0,0,1-5.17-5.17v-1" style="fill:none;stroke:#fff;stroke-linecap:round;stroke-miterlimit:10"></path><path d="M279.1,322.09h0a2.37,2.37,0,0,1-2.37-2.37v-6a2.37,2.37,0,0,1,2.37-2.37h0a2.37,2.37,0,0,1,2.37,2.37v6A2.37,2.37,0,0,1,279.1,322.09Z" style="fill:none;stroke:#fff;stroke-linecap:round;stroke-miterlimit:10"></path><line x1="279.1" y1="324.98" x2="279.1" y2="328.74" style="fill:none;stroke:#fff;stroke-linecap:round;stroke-miterlimit:10"></line><path d="M337.62,316.06a3.27,3.27,0,1,1-3.27-3.27A3.26,3.26,0,0,1,337.62,316.06Z" style="fill:none;stroke:#fff;stroke-linecap:round;stroke-miterlimit:10;stroke-width:2px"></path><path d="M330.87,321.93h7a4.87,4.87,0,0,1,4.87,4.87V329a0,0,0,0,1,0,0H326a0,0,0,0,1,0,0V326.8A4.87,4.87,0,0,1,330.87,321.93Z" style="fill:none;stroke:#fff;stroke-linecap:round;stroke-miterlimit:10;stroke-width:2px"></path><line x1="275.43" y1="247.9" x2="275.43" y2="266.44" style="fill:none;stroke:#fff;stroke-linecap:round;stroke-miterlimit:10"></line><line x1="281.95" y1="247.9" x2="281.95" y2="266.44" style="fill:none;stroke:#fff;stroke-linecap:round;stroke-miterlimit:10"></line><line x1="334.3" y1="247.9" x2="334.3" y2="266.44" style="fill:none;stroke:#fff;stroke-linecap:round;stroke-miterlimit:10"></line><line x1="343.57" y1="257.17" x2="325.03" y2="257.17" style="fill:none;stroke:#fff;stroke-linecap:round;stroke-miterlimit:10"></line><path d="M208.88,277.66v.56h-.43v-.59c0-.72-.28-1.27-1-1.27s-1,.55-1,1.27v3.52c0,.72.28,1.26,1,1.26s1-.54,1-1.26v-.81h.43v.78c0,1-.43,1.7-1.46,1.7s-1.46-.73-1.46-1.7v-3.46c0-1,.43-1.71,1.46-1.71S208.88,276.69,208.88,277.66Z" style="fill:#fff"></path><path d="M210.25,281.27l-.34,1.5h-.4L211,276h.65l1.5,6.77h-.44l-.34-1.5Zm.07-.39h2l-1-4.37Z" style="fill:#fff"></path><path d="M213.81,282.77V276h.45v6.35h2.12v.41Z" style="fill:#fff"></path><path d="M219.33,279.14v.4h-1.84v2.82h2.22v.41h-2.66V276h2.66v.41h-2.22v2.72Z" style="fill:#fff"></path><path d="M220.84,282.77h-.4V276H221l2,5.7V276h.41v6.76H223l-2.12-6Z" style="fill:#fff"></path><path d="M225.7,276c1,0,1.49.69,1.49,1.68v3.4c0,1-.45,1.68-1.49,1.68h-1.49V276Zm0,6.35c.75,0,1.06-.51,1.06-1.25v-3.44c0-.74-.32-1.25-1.06-1.25h-1v5.94Z" style="fill:#fff"></path><path d="M228.57,281.27l-.34,1.5h-.41L229.3,276H230l1.5,6.77H231l-.34-1.5Zm.07-.39h2l-1-4.37Z" style="fill:#fff"></path><path d="M233.54,276c1,0,1.45.57,1.45,1.53v.58a1.48,1.48,0,0,0,0,2.78V282a1.57,1.57,0,0,0,.16.81h-.46a1.56,1.56,0,0,1-.15-.81v-1.07c0-.89-.49-1.14-1.26-1.14h-.71v3h-.44V276Zm-.25,3.33c.79,0,1.25-.22,1.25-1.13v-.64c0-.72-.28-1.15-1-1.15h-1v2.92Z" style="fill:#fff"></path><path d="M272.83,279.59v3.18h-.45V276h.45v3.18h2.1V276h.46v6.76h-.46v-3.18Z" style="fill:#fff"></path><path d="M276.13,277.66c0-1,.45-1.71,1.48-1.71s1.49.73,1.49,1.71v3.46c0,1-.45,1.7-1.49,1.7s-1.48-.72-1.48-1.7Zm.44,3.49c0,.73.29,1.27,1,1.27s1.05-.54,1.05-1.27v-3.52c0-.73-.3-1.27-1.05-1.27s-1,.54-1,1.27Z" style="fill:#fff"></path><path d="M279.84,282.77V276h.44v6.35h2.13v.41Z" style="fill:#fff"></path><path d="M284.56,276c1,0,1.5.69,1.5,1.68v3.4c0,1-.46,1.68-1.5,1.68h-1.49V276Zm0,6.35c.75,0,1.06-.51,1.06-1.25v-3.44c0-.74-.32-1.25-1.06-1.25h-1v5.94Z" style="fill:#fff"></path><path d="M321.32,281.27l-.34,1.5h-.4l1.47-6.77h.65l1.5,6.77h-.44l-.34-1.5Zm.07-.39h2l-1-4.37Z" style="fill:#fff"></path><path d="M326.37,276c1,0,1.49.69,1.49,1.68v3.4c0,1-.45,1.68-1.49,1.68h-1.49V276Zm0,6.35c.75,0,1.06-.51,1.06-1.25v-3.44c0-.74-.32-1.25-1.06-1.25h-1v5.94Z" style="fill:#fff"></path><path d="M330.09,276c1,0,1.49.69,1.49,1.68v3.4c0,1-.45,1.68-1.49,1.68H328.6V276Zm0,6.35c.75,0,1.06-.51,1.06-1.25v-3.44c0-.74-.32-1.25-1.06-1.25h-1v5.94Z" style="fill:#fff"></path><path d="M336.7,277.66v.56h-.43v-.59c0-.72-.27-1.27-1-1.27s-1,.55-1,1.27v3.52c0,.72.28,1.26,1,1.26s1-.54,1-1.26v-.81h.43v.78c0,1-.43,1.7-1.46,1.7s-1.45-.73-1.45-1.7v-3.46c0-1,.42-1.71,1.45-1.71S336.7,276.69,336.7,277.66Z" style="fill:#fff"></path><path d="M338.07,281.27l-.34,1.5h-.4l1.48-6.77h.64l1.51,6.77h-.45l-.33-1.5Zm.07-.39h2l-1-4.37Z" style="fill:#fff"></path><path d="M341.64,282.77V276h.44v6.35h2.12v.41Z" style="fill:#fff"></path><path d="M344.87,282.77V276h.44v6.35h2.13v.41Z" style="fill:#fff"></path><path d="M322.72,339v.56h-.43V339c0-.72-.28-1.27-1-1.27s-1,.55-1,1.27v3.51c0,.73.28,1.27,1,1.27s1-.54,1-1.27v-.8h.43v.77c0,1-.43,1.71-1.46,1.71s-1.46-.73-1.46-1.71V339c0-1,.43-1.71,1.46-1.71S322.72,338,322.72,339Z" style="fill:#fff"></path><path d="M323.41,339c0-1,.46-1.71,1.48-1.71s1.5.72,1.5,1.71v3.45c0,1-.46,1.71-1.5,1.71s-1.48-.72-1.48-1.71Zm.45,3.48c0,.74.29,1.28,1,1.28s1.05-.54,1.05-1.28V339c0-.73-.3-1.27-1.05-1.27s-1,.54-1,1.27Z" style="fill:#fff"></path><path d="M327.53,344.08h-.41v-6.75h.58l2,5.7v-5.7h.4v6.75h-.49l-2.11-6Z" style="fill:#fff"></path><path d="M332,344.08v-6.35h-1.37v-.4h3.19v.4h-1.38v6.35Z" style="fill:#fff"></path><path d="M334.69,342.59l-.34,1.49H334l1.48-6.76h.64l1.51,6.76h-.45l-.33-1.49Zm.07-.39h2l-1-4.37Z" style="fill:#fff"></path><path d="M341.13,339v.56h-.42V339c0-.72-.28-1.27-1-1.27s-1,.55-1,1.27v3.51c0,.73.28,1.27,1,1.27s1-.54,1-1.27v-.8h.42v.77c0,1-.42,1.71-1.46,1.71s-1.45-.73-1.45-1.71V339c0-1,.42-1.71,1.45-1.71S341.13,338,341.13,339Z" style="fill:#fff"></path><path d="M343,344.08v-6.35h-1.37v-.4h3.19v.4h-1.38v6.35Z" style="fill:#fff"></path><path d="M348.22,339v.14h-.43v-.17c0-.71-.26-1.25-1-1.25s-1,.53-1,1.24c0,1.64,2.44,1.67,2.44,3.53,0,1-.43,1.69-1.46,1.69s-1.46-.71-1.46-1.69v-.34h.43v.37c0,.73.28,1.25,1,1.25s1-.52,1-1.25c0-1.62-2.45-1.65-2.45-3.53,0-1,.45-1.67,1.44-1.68S348.22,338,348.22,339Z" style="fill:#fff"></path><path d="M274.15,344.08h-.44l-1.43-6v6h-.4v-6.75h.64l1.42,6,1.41-6H276v6.75h-.42v-6Z" style="fill:#fff"></path><path d="M277.18,342.45c0,.73.27,1.29,1,1.29s1-.56,1-1.29v-5.12h.42v5.1c0,1-.41,1.71-1.44,1.71s-1.45-.74-1.45-1.71v-5.1h.44Z" style="fill:#fff"></path><path d="M281.53,344.08v-6.35h-1.37v-.4h3.19v.4H282v6.35Z" style="fill:#fff"></path><path d="M286.19,340.46v.4h-1.84v2.82h2.22v.4H283.9v-6.75h2.67v.4h-2.22v2.73Z" style="fill:#fff"></path><path d="M207,344.08h-.4v-6.75h.58l2,5.7v-5.7h.41v6.75h-.49l-2.12-6Z" style="fill:#fff"></path><path d="M210.38,339c0-1,.46-1.71,1.48-1.71s1.5.72,1.5,1.71v3.45c0,1-.46,1.71-1.5,1.71s-1.48-.72-1.48-1.71Zm.45,3.48c0,.74.29,1.28,1,1.28s1-.54,1-1.28V339c0-.73-.3-1.27-1-1.27s-1,.54-1,1.27Z" style="fill:#fff"></path><path d="M215.23,344.08v-6.35h-1.37v-.4h3.2v.4h-1.38v6.35Z" style="fill:#fff"></path><path d="M219.89,340.46v.4h-1.84v2.82h2.22v.4h-2.66v-6.75h2.66v.4h-2.22v2.73Z" style="fill:#fff"></path><path d="M222.4,337.33c1,0,1.44.66,1.44,1.64v.73c0,1.07-.49,1.6-1.56,1.6h-.84v2.78H221v-6.75Zm-.12,3.57c.78,0,1.12-.35,1.12-1.17v-.79c0-.73-.25-1.21-1-1.21h-1v3.17Z" style="fill:#fff"></path><path d="M225,342.59l-.33,1.49h-.41l1.48-6.76h.64l1.51,6.76h-.45l-.33-1.49Zm.07-.39h2l-1-4.37Z" style="fill:#fff"></path><path d="M230.08,337.33c1,0,1.5.68,1.5,1.68v3.4c0,1-.45,1.67-1.5,1.67H228.6v-6.75Zm0,6.35c.76,0,1.07-.51,1.07-1.25V339c0-.74-.32-1.26-1.07-1.26h-1v5.95Z" style="fill:#fff"></path><circle cx="277.66" cy="381.57" r="21.82" transform="translate(-180.51 494.57) rotate(-67.81)" style="fill:#407BFF"></circle><path d="M291.38,386.82a13.48,13.48,0,0,0,1.14-1.5,3.49,3.49,0,0,0-.67-4.19,18.94,18.94,0,0,0-9-5.05,19.32,19.32,0,0,0-18.56,5,3.51,3.51,0,0,0-.37,4.86,12.17,12.17,0,0,0,1.56,1.57.79.79,0,0,0,.72,0c1.5-.71,3-1.48,4.46-2.21a.65.65,0,0,0,.41-.86c-.17-.74-.28-1.49-.45-2.23a.61.61,0,0,1,.44-.82,18.33,18.33,0,0,1,13.92,0,.59.59,0,0,1,.43.78c-.16.72-.26,1.45-.45,2.16a.79.79,0,0,0,.52,1c1.2.56,2.38,1.17,3.56,1.76C290.55,387.89,290.15,387.92,291.38,386.82Z" style="fill:#fff"></path><path d="M291.38,386.82c-1.23,1.1-.83,1.07-2.3.33-1.18-.59-2.36-1.2-3.56-1.76a.79.79,0,0,1-.52-1c.19-.71.29-1.44.45-2.16a.59.59,0,0,0-.43-.78,18.33,18.33,0,0,0-13.92,0,.61.61,0,0,0-.44.82c.17.74.28,1.49.45,2.23a.65.65,0,0,1-.41.86c-1.49.73-3,1.5-4.46,2.21a.79.79,0,0,1-.72,0,12.17,12.17,0,0,1-1.56-1.57,3.51,3.51,0,0,1,.37-4.86,19.32,19.32,0,0,1,18.56-5,18.94,18.94,0,0,1,9,5.05,3.49,3.49,0,0,1,.67,4.19A13.48,13.48,0,0,1,291.38,386.82Z" style="fill:#fff"></path><path d="M265.24,79.37c1.29,0,1.85.84,1.85,2.08v4.2c0,1.24-.56,2.08-1.85,2.08H263.4V79.37Zm0,7.86c.94,0,1.32-.63,1.32-1.55V81.42c0-.92-.39-1.55-1.32-1.55H264v7.36Z" style="fill:#fff"></path><path d="M268.55,79.37v8.36H268V79.37Z" style="fill:#fff"></path><path d="M270.31,85.88l-.42,1.85h-.5l1.83-8.38h.8l1.86,8.38h-.55l-.42-1.85Zm.08-.48h2.44L271.6,80Z" style="fill:#fff"></path><path d="M274.72,87.73V79.37h.55v7.86h2.63v.5Z" style="fill:#fff"></path><path d="M279.28,79.37v8.36h-.55V79.37Z" style="fill:#fff"></path><path d="M280.74,87.73h-.51V79.37H281l2.51,7.06V79.37h.5v8.36h-.61l-2.61-7.46Z" style="fill:#fff"></path><path d="M288.48,81.41V82H288v-.66c0-.89-.35-1.57-1.27-1.57s-1.27.68-1.27,1.57v4.36c0,.89.35,1.56,1.27,1.56s1.27-.67,1.27-1.56V83.92h-1.11v-.5h1.63v2.27c0,1.21-.52,2.12-1.8,2.12s-1.81-.91-1.81-2.12V81.41c0-1.21.53-2.12,1.81-2.12S288.48,80.2,288.48,81.41Z" style="fill:#fff"></path><path d="M289.82,86.68v1h-.53v-1Z" style="fill:#fff"></path><path d="M291.32,86.68v1h-.54v-1Z" style="fill:#fff"></path><path d="M292.81,86.68v1h-.53v-1Z" style="fill:#fff"></path><path d="M294.31,86.68v1h-.54v-1Z" style="fill:#fff"></path></g><g id="freepik--Floor--inject-57"><line x1="17" y1="475" x2="474" y2="475" style="fill:none;stroke:#263238;stroke-miterlimit:10"></line></g></svg>